<?xml version="1.0" standalone="no"?>
<!DOCTYPE svg PUBLIC "-//W3C//DTD SVG 20010904//EN"
 "http://www.w3.org/TR/2001/REC-SVG-20010904/DTD/svg10.dtd">
<svg version="1.0" xmlns="http://www.w3.org/2000/svg"
 width="480.000000pt" height="480.000000pt" viewBox="0 0 480.000000 480.000000"
 preserveAspectRatio="xMidYMid meet">
<metadata>
Created by potrace 1.11, written by Peter Selinger 2001-2013
</metadata>
<g transform="translate(0.000000,480.000000) scale(0.100000,-0.100000)"
fill="#000000" stroke="none">
<path d="M645 4780 c-12 -14 -16 -33 -13 -79 1 -34 5 -61 8 -61 3 0 6 -9 7
-20 2 -29 78 -177 116 -226 18 -23 47 -52 65 -65 l33 -22 -37 -33 c-20 -19
-41 -31 -47 -27 -6 3 -7 2 -4 -3 3 -6 -11 -28 -31 -50 -20 -21 -37 -41 -37
-44 0 -3 -8 -16 -17 -30 -9 -14 -24 -42 -34 -62 -10 -21 -22 -38 -26 -38 -5 0
-6 -4 -3 -10 3 -5 3 -16 -2 -22 -8 -14 -10 -19 -12 -44 0 -8 -5 -13 -10 -10
-4 3 -7 -7 -5 -22 1 -15 -5 -35 -14 -46 -9 -11 -11 -16 -4 -12 15 9 15 1 2
-25 -8 -14 -7 -19 1 -19 8 0 8 -4 -1 -15 -7 -8 -10 -21 -7 -30 4 -8 1 -17 -5
-21 -7 -4 -6 -9 3 -15 8 -5 10 -9 4 -9 -6 0 -10 -80 -9 -221 l0 -221 25 -13
c46 -24 168 -45 294 -50 39 -2 75 -4 82 -4 6 -1 10 -9 8 -18 -2 -10 -4 -21 -4
-25 -2 -12 -66 -27 -136 -32 -38 -2 -70 -5 -70 -6 0 -1 -13 -4 -29 -6 -39 -7
-160 -58 -196 -84 -15 -11 -31 -20 -34 -20 -7 0 -153 -98 -185 -125 -87 -71
-111 -98 -111 -127 0 -45 25 -95 87 -172 64 -80 268 -286 327 -331 48 -37 66
-54 66 -63 0 -10 -20 -38 -20 -29 0 4 -9 3 -20 -3 -17 -9 -18 -14 -8 -30 18
-28 62 -43 106 -37 l37 6 2 -41 c2 -23 9 -51 17 -63 8 -13 15 -31 15 -41 -1
-25 11 -231 16 -291 2 -27 7 -84 10 -128 4 -44 8 -90 10 -101 2 -12 6 -48 10
-80 8 -67 8 -70 29 -179 8 -44 17 -96 20 -116 3 -20 10 -48 15 -63 6 -14 8
-26 6 -26 -3 0 11 -30 30 -67 19 -37 35 -71 35 -76 0 -5 6 -23 14 -40 14 -32
56 -144 61 -162 1 -5 5 -17 8 -25 19 -48 50 -181 50 -212 -1 -83 -35 -167 -73
-182 -119 -48 -163 -161 -77 -197 29 -12 127 -15 172 -5 11 2 26 5 33 5 22 1
126 117 151 167 38 76 25 176 -25 188 -41 11 -73 114 -78 249 0 9 -4 17 -9 17
-4 0 -6 4 -3 8 3 5 -1 33 -9 62 -8 29 -12 57 -9 62 3 4 0 8 -5 8 -6 0 -10 3
-9 7 3 12 -13 96 -20 108 -14 23 -19 132 -26 537 l-4 268 32 0 c19 0 45 9 59
20 28 22 37 25 37 11 0 -5 23 -57 50 -116 28 -59 50 -109 50 -112 0 -12 163
-328 171 -331 5 -2 9 -9 9 -16 0 -33 54 -121 126 -206 12 -14 68 -81 125 -150
57 -69 106 -127 109 -130 33 -29 212 -256 215 -273 2 -12 6 -38 8 -57 10 -83
81 -198 143 -230 104 -54 224 -17 224 69 0 44 -33 110 -94 189 -53 70 -90 101
-126 109 -18 3 -39 24 -67 66 -48 75 -103 166 -103 173 0 18 -90 154 -134 204
-52 59 -169 273 -179 330 -3 14 -15 52 -27 85 -24 66 -30 84 -29 88 0 1 -8 25
-19 52 -11 28 -20 53 -21 57 -1 4 -4 13 -6 20 -62 169 -165 497 -165 525 l0
38 59 0 c44 1 65 6 81 20 21 19 23 36 5 37 -6 0 -18 4 -28 10 -25 13 -8 33 41
49 20 7 53 21 72 32 214 118 367 233 401 300 34 66 19 96 -101 197 -36 30 -67
58 -70 61 -3 3 -34 27 -70 53 -36 27 -67 51 -70 55 -3 3 -27 22 -55 41 -27 19
-63 47 -80 62 -16 16 -40 31 -52 34 -13 4 -23 10 -23 14 0 17 -117 47 -190 49
-47 1 -88 8 -109 19 -35 17 -60 46 -49 57 3 3 45 7 94 10 176 8 310 32 333 59
11 13 17 413 7 423 -3 3 0 13 7 21 9 13 9 14 0 8 -7 -4 -13 -4 -14 1 0 4 -2
18 -5 31 -3 16 0 21 8 17 7 -4 5 0 -4 8 -10 8 -15 16 -12 19 2 3 -1 17 -7 31
-9 21 -9 30 1 42 11 13 10 14 -6 9 -10 -4 -16 -4 -12 1 4 4 4 13 -1 19 -5 6
-11 22 -13 36 -1 14 -9 31 -16 39 -7 7 -10 22 -6 33 4 14 2 18 -5 14 -6 -4
-11 -1 -11 8 0 8 -5 16 -10 18 -6 2 -12 13 -13 25 0 12 -4 20 -8 18 -3 -3 -12
8 -20 23 -8 15 -22 35 -33 45 -10 9 -17 17 -13 17 6 0 -35 47 -90 105 l-32 34
32 33 c94 98 165 243 172 350 4 62 -1 77 -29 87 -78 29 -260 -250 -265 -407
-1 -19 -4 -21 -19 -13 -33 17 -75 23 -162 23 -102 0 -133 -6 -198 -41 -14 -8
-17 -4 -16 20 3 95 -92 298 -177 377 -48 45 -83 55 -104 32z m108 -1943 c13
-16 16 -32 12 -57 -18 -103 -10 -158 41 -266 33 -72 38 -147 17 -234 l-16 -62
-41 44 c-71 76 -116 131 -246 304 -25 32 -47 61 -50 64 -3 3 -19 29 -37 57
-29 47 -30 54 -17 68 9 8 21 15 29 15 12 0 84 30 180 76 58 28 101 25 128 -9z
m890 -8 c9 -5 17 -7 17 -3 0 4 8 0 18 -8 9 -8 75 -50 145 -93 71 -43 132 -86
137 -95 10 -19 -2 -35 -60 -80 -25 -19 -55 -44 -66 -55 -12 -11 -30 -27 -40
-35 -11 -9 -55 -47 -99 -86 -44 -39 -104 -89 -134 -113 l-54 -42 -23 53 c-39
89 -39 106 -3 229 27 95 33 131 33 217 1 99 2 104 25 117 25 13 72 10 104 -6z"/>
<path d="M2732 4779 c-25 -26 -22 -83 12 -183 39 -116 157 -286 198 -286 7 0
1 -11 -14 -25 -15 -14 -29 -25 -32 -25 -3 0 -31 -25 -62 -57 -32 -31 -52 -53
-45 -49 15 10 -8 -35 -24 -46 -5 -4 -10 -13 -10 -20 -1 -7 -6 -12 -13 -11 -6
2 -9 -4 -5 -13 3 -8 -3 -22 -13 -30 -11 -9 -13 -13 -7 -9 9 4 11 1 7 -9 -3 -9
-10 -14 -14 -11 -5 3 -6 -3 -3 -14 3 -10 0 -22 -6 -25 -5 -4 -7 -14 -4 -23 5
-12 2 -15 -9 -11 -8 4 -15 1 -15 -8 0 -7 5 -11 10 -7 5 3 6 -4 1 -18 -4 -13
-8 -32 -8 -41 0 -10 -3 -18 -6 -18 -3 0 -6 -17 -7 -38 -1 -46 -6 -74 -16 -88
-3 -6 -4 -14 0 -18 4 -3 7 -98 7 -211 1 -122 5 -208 11 -214 27 -27 183 -51
386 -60 12 -1 15 -8 12 -26 -7 -31 -29 -39 -148 -49 -33 -3 -70 -8 -82 -11
-13 -3 -32 -7 -43 -10 -79 -17 -365 -193 -447 -276 -37 -36 -43 -48 -43 -84 0
-45 18 -78 94 -170 63 -77 182 -200 270 -280 6 -6 35 -30 63 -53 45 -37 51
-47 43 -63 -6 -10 -20 -19 -30 -19 -26 0 -25 -11 1 -41 17 -20 30 -24 78 -24
53 1 57 -1 53 -20 -2 -12 4 -39 13 -61 19 -46 23 -73 30 -219 8 -162 20 -311
31 -390 2 -16 6 -52 9 -80 4 -27 15 -95 26 -149 11 -54 17 -101 14 -104 -3 -3
-1 -10 4 -16 4 -6 11 -27 14 -47 3 -20 21 -70 41 -111 44 -93 106 -263 142
-387 46 -163 20 -268 -79 -321 -57 -31 -90 -74 -90 -117 0 -40 31 -72 73 -74
117 -6 179 6 220 44 47 43 92 103 114 151 33 70 5 176 -46 176 -10 0 -18 4
-18 9 0 5 -7 26 -17 47 -9 22 -17 57 -19 80 -2 36 -16 121 -30 184 -3 14 -7
36 -10 50 -3 14 -7 33 -10 42 -3 9 -6 25 -8 35 -2 10 -10 38 -17 63 -7 25 -13
75 -14 111 -1 36 -5 70 -8 76 -4 7 -3 14 2 18 5 3 8 15 5 28 -3 12 -7 146 -10
298 l-5 276 41 6 c23 3 52 15 64 26 l22 21 36 -77 c20 -43 50 -109 68 -146 49
-110 125 -264 187 -380 53 -98 149 -226 298 -397 22 -25 58 -68 80 -94 22 -27
47 -56 55 -65 8 -9 32 -37 52 -63 21 -25 47 -57 60 -71 16 -18 23 -40 25 -78
5 -102 72 -228 144 -268 98 -55 229 -16 229 69 0 65 -132 259 -195 286 -31 13
-83 69 -114 124 -8 14 -46 81 -84 149 -76 135 -72 130 -135 199 -57 62 -152
257 -203 417 -23 72 -44 135 -48 140 -3 6 -6 12 -7 15 -1 11 -36 117 -104 314
-39 115 -75 228 -79 251 l-8 41 65 0 c56 -1 66 2 83 23 20 25 20 31 -3 35 -32
4 -40 17 -22 37 9 10 24 19 32 19 36 0 274 143 382 229 100 80 132 138 105
191 -17 32 -113 122 -212 196 -39 30 -78 60 -85 67 -7 7 -20 16 -28 20 -8 4
-42 29 -75 57 -122 101 -212 140 -326 140 -76 0 -135 22 -145 53 -3 10 -4 21
-1 23 2 3 43 6 91 7 47 1 86 4 86 7 0 3 14 5 31 4 50 -1 141 16 184 35 l41 18
-1 129 c-1 71 1 133 4 138 4 8 5 72 1 79 -1 1 -3 12 -6 25 -3 16 0 21 8 16 7
-5 8 -3 2 7 -9 15 -13 31 -17 71 -2 15 -6 31 -10 34 -12 12 -8 26 6 18 6 -4 4
2 -6 13 -9 11 -14 23 -10 26 3 4 0 18 -7 32 -7 14 -11 28 -7 31 3 4 -1 13 -9
22 -11 11 -12 17 -4 22 8 5 6 9 -5 14 -10 3 -15 12 -12 20 3 8 3 16 -1 18 -7
3 -46 70 -67 115 -5 13 -14 23 -18 23 -5 0 -5 5 -2 10 3 6 1 10 -5 10 -6 0 -8
5 -5 10 3 6 -1 10 -10 10 -8 0 -18 7 -22 16 -3 9 -15 26 -27 38 -12 13 -36 39
-53 58 l-33 36 28 30 c46 50 82 95 82 105 0 5 8 21 19 35 24 35 67 155 75 210
9 70 -17 107 -65 90 -83 -29 -229 -282 -229 -395 0 -23 -3 -25 -27 -19 -81 20
-105 22 -169 19 -92 -4 -122 -10 -166 -34 -29 -15 -35 -11 -36 24 -2 40 -7 64
-22 102 -6 17 -11 31 -11 33 3 9 -50 108 -85 157 -50 71 -79 100 -116 114 -23
9 -31 7 -46 -10z m92 -1925 c30 -30 38 -54 28 -84 -20 -56 -7 -149 34 -240 46
-104 50 -163 16 -283 l-8 -29 -62 66 c-34 36 -62 70 -62 75 0 5 -4 11 -8 13
-4 2 -23 23 -42 48 -19 25 -37 47 -40 50 -13 13 -74 95 -129 173 -68 98 -69
121 -6 128 6 0 19 6 30 12 11 6 22 12 25 12 3 1 16 7 30 13 157 68 170 71 194
46z m898 -19 c12 -4 65 -34 117 -66 51 -33 95 -59 97 -59 2 0 29 -16 59 -36
64 -43 71 -73 24 -100 -9 -5 -45 -34 -80 -64 -62 -54 -98 -86 -214 -187 -33
-28 -77 -63 -97 -77 l-37 -24 -12 31 c-43 114 -47 130 -37 161 5 17 11 38 13
46 2 8 14 49 26 90 16 54 23 103 23 175 1 93 2 100 24 111 24 12 53 11 94 -1z"/>
</g>
</svg>
